<?xml version="1.0" standalone="no"?>
<svg version="1.1" baseProfile="full" xmlns="http://www.w3.org/2000/svg" width="656" height="858" viewBox="4 30 674 858" style="margin:0 auto; __background:url(img/svg-5.jpg)  no-repeat 0 0;">
	<defs>
		<style>
			.h1{font-family:"Arial"; font-size:35px; fill:#333333; font-weight:normal; word-spacing: 5px; ____fill:red}
			.p2 {font-family:"Arial"; font-size:10.5px; fill:#333; ____fill:red}
			.p3 {font-family:"Arial"; font-size:9px; fill:#333; ____fill:red}
			.p2b {font-family:"Arial"; font-size:11px; font-weight:600; fill:#333;____fill:red}
			.h2 {font-family:"Arial"; font-size:13px; fill:#000; font-weight:600; ____fill:red}
			.subheding {font-family:"Arial"; font-size:11px; fill:#333; font-weight:600; ____fill:red}
			.li-disc {fill:#333; ____fill:red}
			.text-cap {font-size:24px; fill: #fff;font-family:"Arial";}
			.line {stroke:#000;___stroke:#090;}
		</style>
	</defs>

	<text x="20" y="80" class="h1">
		<tspan x="20" y="80"> Stella Walker </tspan>
	</text>

	<text x="9" y="92" class="p3">
		<tspan x="22" y="102">699-812-1342 | MichaelWilliams@gmail.com | 24 Armor Lane, North Easton, MA 20013</tspan>
	</text>

	<text x="22" y="155" class="h2">Professional Summary</text>
	<line xmlns="http://www.w3.org/2000/svg" x1="22" y1="168" x2="656" y2="168" class="line"/>

	<text x="56" y="196" class="p2">Successful sales professional with 10+ years experience in large-scale food and retail environments. Implement cost control </text>	
	<text x="56" y="220" class="p2">meameasures to ensure operations remain within company targets. Maximize bottom-line performance through PL, merchan-</text>
	<text x="56" y="242" class="p2">dising, staff management, loss control and inventory management. Successful sales professional with 10+ years experience in</text>
	<text x="56" y="262" class="p2">large-scale food-and retail environments. Implement cost control measures to ensure operations remain targets</text>

	<text x="22" y="314" class="h2">Skills</text>
	<line xmlns="http://www.w3.org/2000/svg" x1="22" y1="327" x2="656" y2="327" class="line"/>

	<circle cx="58" cy="350" r="1.5"  class="li-disc"></circle>			
	<circle cx="58" cy="374" r="1.5" class="li-disc"></circle>			
	<circle cx="58" cy="398" r="1.5" class="li-disc"></circle>
	<circle cx="58" cy="420" r="1.5" class="li-disc"></circle>

	<text x="64" y="354" class="p2">Executive team leadership</text>
	<text x="64" y="376" class="p2">Inventory report generation</text>
	<text x="64" y="402" class="p2">Client/Vendor relations</text>
	<text x="64" y="425" class="p2">Market analysis</text>

	<circle cx="228" cy="350" r="1.5"  class="li-disc"></circle>			
	<circle cx="228" cy="374" r="1.5" class="li-disc"></circle>			
	<circle cx="228" cy="398" r="1.5" class="li-disc"></circle>
	<circle cx="228" cy="420" r="1.5" class="li-disc"></circle>

	<text x="234" y="354" class="p2">Executive team leadership</text>
	<text x="234" y="376" class="p2">Inventory report generation</text>
	<text x="234" y="402" class="p2">Client/Vendor relations</text>
	<text x="234" y="425" class="p2">Market analysis</text>


	<circle cx="398" cy="350" r="1.5"  class="li-disc"></circle>			
	<circle cx="398" cy="374" r="1.5" class="li-disc"></circle>			
	<circle cx="398" cy="398" r="1.5" class="li-disc"></circle>
	<circle cx="398" cy="420" r="1.5" class="li-disc"></circle>

	<text x="404" y="354" class="p2">Executive team leadership</text>
	<text x="404" y="376" class="p2">Inventory report generation</text>
	<text x="404" y="402" class="p2">Client/Vendor relations</text>
	<text x="404" y="425" class="p2">Market analysis</text>


	<text x="22" y="474" class="h2">Experience</text>
	<line xmlns="http://www.w3.org/2000/svg" x1="22" y1="488" x2="656" y2="488" class="line"/>

	<text x="56" y="520" class="subheding">Shift Manager</text>
	<text x="56" y="534" class="subheding">New Finland Company, Pasadnea CA</text>
	<text x="540" y="520" class="p2">March 2016 - April 2017</text>

	<g  transform="translate(0 14)">
		<circle cx="58" cy="540" r="1.5"  class="li-disc"></circle>			
		<circle cx="58" cy="560" r="1.5" class="li-disc"></circle>			
		<circle cx="58" cy="584" r="1.5" class="li-disc"></circle>
		<circle cx="58" cy="604" r="1.5" class="li-disc"></circle>

		<text x="56" y="602" class="p2">
			<tspan x="62" y="542">Provided onsite training. Monitored multiple databases to keep track of all company inventory. </tspan>
			<tspan x="62" y="565">Provided onsite training. Monitored multiple databases to keep track of all company inventory.</tspan>
			<tspan x="62" y="586">Provided onsite training. Monitored multiple databases to keep track of all company inventory.</tspan>
			<tspan x="62" y="608">Provided onsite training. Monitored multiple databases to keep track of all company inventory.</tspan>
		</text>
	</g>

	<text x="56" y="656" class="subheding">Shift Manager</text>
	<text x="56" y="670" class="subheding">New Finland Company, Pasadnea CA</text>
	<text x="540" y="656" class="p2">March 2016 - April 2017</text>

	<g  transform="translate(0 24)">
		<circle cx="58" cy="664" r="1.5" class="li-disc"></circle>
		<circle cx="58" cy="686" r="1.5" class="li-disc"></circle>
		<text x="56" y="602" class="p2">
			<tspan x="62" y="667">Provided onsite training. Monitored multiple databases to keep track of all company inventory. </tspan>
			<tspan x="62" y="687">Provided onsite training. Monitored multiple databases to keep track of all company inventory.</tspan>
		</text>
	</g>
	
	<g  transform="translate(0 24)">
		<text x="22" y="736" class="h2">Education</text>
		<line xmlns="http://www.w3.org/2000/svg" x1="22" y1="748" x2="656" y2="748" class="line"/>

		<text x="56" y="782" class="subheding">Bachelor of Operational Arts — San Francisco City College, San Francisco CA</text>
		<text x="595" y="782" class="p2">March 2016</text>

		<circle cx="58" cy="803" r="1.5" class="li-disc"></circle>
		<circle cx="58" cy="823" r="1.5" class="li-disc"></circle>
		<circle cx="58" cy="845" r="1.5" class="li-disc"></circle>

		<text x="62" y="806" class="p2">Dean list 2016-207</text>
		<text x="62" y="826" class="p2">Academic Research Scholar Club</text>
		<text x="62" y="848" class="p2">Student Body President</text>
	</g>

</svg>