<?xml version="1.0" standalone="no"?>
<svg version="1.1" baseProfile="full" xmlns="http://www.w3.org/2000/svg" width="664" height="858" viewBox="25 20 614 858" style="margin:0 auto; __background:url(img/svg-8.jpg) no-repeat 0 0;">
	<defs>
		<style>
			.h1{font-family:"Arial"; font-size:40px; fill:#000; ____fill:red}
			.p2 {font-family:"Arial"; font-size:9px; fill:#333;____fill:red}
			.p3 {font-family:"Arial"; font-size:09px; fill:#9b9b9b; ____fill:red}
			.p2b {font-family:"Arial"; font-size:11px; font-weight:600; fill:#000;____fill:red}
			.h2 {font-family:"Arial"; font-size:9px; fill:#000; font-weight:600; ____fill:red}
			.subheding {font-family:"Arial"; font-size:9px; fill:#333; font-weight:600; ____fill:red}
			.li-disc {fill:#333; ____fill:red}
			.text-cap {font-size:24px; fill: #fff;font-family:"Arial";}
			.line{stroke:#fff;___stroke:#090;}
			.bold{font-weight:700}
		</style>
	</defs>

	<text x="0" y="90" class="h1">
		<tspan xmlns="http://www.w3.org/2000/svg" x="45" y="94" class="bold"> STELLA WALKER </tspan>
	</text>

	<text x="0" y="92" class="p3">
		<tspan x="45" y="113"> 24 Armor Lane, North Easton, Ma 02356 (H) 508-278-2542 (C) 781-669-5989 jwalker@live.com  </tspan>
	</text>
	
	<rect width="590" height="20" style="fill:#F1F0F0" x="36" y="144"/>
	<text x="45" y="158" class="h2"> PROFESSIONAL SUMMARY </text>

	<rect width="590" height="20" style="fill:#F1F0F0" x="36" y="264"/>
	<text x="45" y="278" class="h2"> SKILLS </text>

	<rect width="590" height="20" style="fill:#F1F0F0" x="36" y="374"/>
	<text x="45" y="389" class="h2"> EXPERIENCE </text>
	
	<g  transform="translate(0 40)">
		<rect width="590" height="20" style="fill:#F1F0F0" x="36" y="664"/>
		<text x="45" y="677" class="h2"> EDUCATION </text>
	</g>


	<text x="45" y="182" class="p2">Successful sales professional with 10+ years experience in large-scale food and retail environments. Implement cost control measures</text>	
	<text x="45" y="196" class="p2"> to ensure operations remain within company targets. Maximize bottom-line performance through PL, merchandising, staff manage</text>
	<text x="45" y="210" class="p2">ment, loss control and inventory management. Successful sales professional with 10+ years experience in large-scale food and retail</text>
	<text x="45" y="224" class="p2">environments. Implement cost control measures to ensure operations remain within company targets. Maximize bottom-line perfor-</text>
	<text x="45" y="238" class="p2">through P L. merchandising staff management loss control and inventory management.</text>

	<circle cx="47" cy="300" r="1.5" class="li-disc"></circle>			
	<circle cx="47" cy="314" r="1.5" class="li-disc"></circle>			
	<circle cx="47" cy="328" r="1.5" class="li-disc"></circle>
	<circle cx="47" cy="342" r="1.5" class="li-disc"></circle>

	<text x="62" y="302" class="p2">Executive team leadership</text>
	<text x="62" y="316" class="p2">Inventory report generation</text>
	<text x="62" y="330" class="p2">Client/Vendor relations</text>
	<text x="62" y="344" class="p2">Market analysis</text>

	<circle cx="236" cy="300" r="1.5" class="li-disc"></circle>			
	<circle cx="236" cy="314" r="1.5" class="li-disc"></circle>			
	<circle cx="236" cy="328" r="1.5" class="li-disc"></circle>
	<circle cx="236" cy="342" r="1.5" class="li-disc"></circle>

	<text x="251" y="302" class="p2">Sales Management</text>
	<text x="251" y="316" class="p2">Staff training</text>
	<text x="251" y="330" class="p2">Customer relations</text>
	<text x="251" y="344" class="p2">Process improvements</text>

	<circle cx="416" cy="300" r="1.5" class="li-disc"></circle>			
	<circle cx="416" cy="314" r="1.5" class="li-disc"></circle>			
	<circle cx="416" cy="328" r="1.5" class="li-disc"></circle>
	<circle cx="416" cy="342" r="1.5" class="li-disc"></circle>

	<text x="431" y="302" class="p2">Sales Management</text>
	<text x="431" y="316" class="p2">Staff training</text>
	<text x="431" y="330" class="p2">Customer relations</text>
	<text x="431" y="344" class="p2">Process improvements</text>

	<text x="45" y="414" class="subheding">District Manager</text>
	<text x="45" y="428" class="subheding">Verizon Wireless | San Francisco, CA</text>

	<g  transform="translate(0 15)">
		<circle cx="47" cy="428" r="1.5"  class="li-disc"></circle>			
		<circle cx="47" cy="442" r="1.5" class="li-disc"></circle>			
		<circle cx="47" cy="456" r="1.5" class="li-disc"></circle>
		<circle cx="47" cy="470" r="1.5" class="li-disc"></circle>

		<text x="46" y="470" class="p2">
			<tspan x="62" y="431">Directed recruitment/training/staff development initiatives.</tspan>
			<tspan x="62" y="445">Successfully increased employee retention with a positive work environment.</tspan>
			<tspan x="62" y="459">Administered daily operations to ensure policies were adhered to by sales staff.</tspan>
			<tspan x="62" y="473">Cultivated strong business relationships with customers to drive business</tspan>
		</text>
	</g>

	<text x="45" y="508" class="subheding">District Manager</text>
	<text x="45" y="522" class="subheding">Verizon Wireless | San Francisco, CA</text>

	<g  transform="translate(0 30)">
		<circle cx="47" cy="506" r="1.5"  class="li-disc"></circle>			
		<circle cx="47" cy="520" r="1.5" class="li-disc"></circle>			
		<circle cx="47" cy="534" r="1.5" class="li-disc"></circle>
		<circle cx="47" cy="548" r="1.5" class="li-disc"></circle>


		<text x="46" y="500" class="p2">
			<tspan x="62" y="509">Directed recruitment/training/staff development initiatives.</tspan>
			<tspan x="62" y="523">Successfully increased employee retention with a positive work environment.</tspan>
			<tspan x="62" y="537">Administered daily operations to ensure policies were adhered to by sales staff.</tspan>
			<tspan x="62" y="551">Cultivated strong business relationships with customers to drive business</tspan>
		</text>
	</g>

	<text x="45" y="600" class="subheding">District Manager</text>
	<text x="45" y="614" class="subheding">Verizon Wireless | San Francisco, CA</text>
	<g  transform="translate(0 40)">
		<circle cx="47" cy="591" r="1.5"  class="li-disc"></circle>			
		<circle cx="47" cy="605" r="1.5" class="li-disc"></circle>			
		<circle cx="47" cy="619" r="1.5" class="li-disc"></circle>
		<circle cx="47" cy="633" r="1.5" class="li-disc"></circle>

		<text x="46" y="548" class="p2">
			<tspan x="62" y="593">Directed recruitment/training/staff development initiatives.</tspan>
			<tspan x="62" y="608">Successfully increased employee retention with a positive work environment.</tspan>
			<tspan x="62" y="622">Administered daily operations to ensure policies were adhered to by sales staff.</tspan>
			<tspan x="62" y="636">Cultivated strong business relationships with customers to drive business</tspan>
		</text>
	</g>

	<g  transform="translate(0 40)">
		<text x="47" y="702" class="subheding">Bachelor of Arts: Operational Managements</text>
		<text x="47" y="716" class="p2">San Francisco State University, San Francisco, CA</text>

		<text x="47" y="736" class="subheding">Bachelor of Arts: Operational Managements</text>
		<text x="47" y="750" class="p2">San Francisco State University, San Francisco, CA</text>

		<text x="47" y="776" class="subheding">Bachelor of Arts: Operational Managements</text>
		<text x="47" y="790" class="p2">San Francisco State University, San Francisco, CA</text>

		<text x="525" y="414" class="p2">August 2011-Current</text>
		<text x="540" y="494" class="p2">June 2008-2011</text>
		<text x="538" y="579" class="p2">August 2002-2007</text>
		<text x="560" y="702" class="p2">August 2011</text>
		<text x="570" y="736" class="p2">July 2002</text>
		<text x="560" y="776" class="p2">August 1998</text>
	</g>

</svg>