<?xml version="1.0" standalone="no"?>
<svg version="1.1" baseProfile="full" xmlns="http://www.w3.org/2000/svg" width="614" height="858" viewBox="0 0 654 858" style="margin:0 auto; __background:url(img/svg-7.jpg) no-repeat 0 0;">
	<defs>
		<style>
			.h1{font-family:"Arial"; font-size:45px; text fill:#333333; font-weight:bold; ____fill:red}
			.p2 {font-family:"Arial"; font-size:9px; fill:#333; ____fill:red}
			.p3 {font-family:"Arial"; font-size:9px; fill:#333; word-spacing: 4px; ____fill:red}
			.p2b {font-family:"Arial"; font-size:11px; font-weight:600; fill:#333;____fill:red}
			.h2 {font-family:"Arial"; font-size:10px; fill:#333; font-weight:600; ____fill:red}
			.subheding {font-family:"Arial"; font-size:10px; fill:rgba(118, 119, 116, 0.73); font-weight:600; ____fill:red}
			.li-disc {fill:#333; ____fill:red}
			.text-cap {font-size:24px; fill: #fff;font-family:"Arial"; font-weight: 600;}
			.line{stroke:#ccc;___stroke:#090;}
		</style>
	</defs>

	<rect width="68" height="68" style="fill:#FFD107" x="24" y="30"></rect>
	<g xmlns="http://www.w3.org/2000/svg" transform="translate(74 98) rotate(-40)">
	    <rect x="0" y="0" width="24" height="14" fill="#fff" stroke-width="30"/>
	  </g>

	<text x="30" y="66" class="text-icon">
		<tspan x="34" y="68" class="text-cap">S W</tspan>
	</text>

	<text x="92" y="32" class="h1">
		<tspan xmlns="http://www.w3.org/2000/svg" x="102" y="73"> Stella Walker </tspan>
	</text>

	<text x="100" y="100" class="p3">
		<tspan x="106" y="92">24Armor Lane, North Easton,Ma 02356 (H) 508-278-2542 (C) 781-669-5989 jwalker@live.com </tspan>
	</text>

	<line xmlns="http://www.w3.org/2000/svg" x1="24" y1="126" x2="638" y2="126" class="line"/>

	<text x="28" y="158" class="h2">Professional Summary</text>	

	<text x="200" y="156" class="p2">Successful sales professional with 10+ years experience in large-scale food and retail environments.</text>	
	<text x="200" y="174" class="p2"> Implement cost control measures to ensure operations remain within company targets. Maximize</text>
	<text x="200" y="192" class="p2">bottom-line performance through PL, merchandising, staff management, loss control and inventory</text>
	<text x="200" y="208" class="p2">management.</text>

	<line xmlns="http://www.w3.org/2000/svg" x1="24" y1="232" x2="638" y2="232" class="line"/>

	<text x="28" y="262" class="h2">Skills</text>

	<circle cx="200" cy="260" r="1.5"  class="li-disc"></circle>			
	<circle cx="200" cy="278" r="1.5" class="li-disc"></circle>			
	<circle cx="200" cy="296" r="1.5" class="li-disc"></circle>
	<circle cx="200" cy="314" r="1.5" class="li-disc"></circle>

	<text x="220" y="263" class="p2">Executive team leadership</text>
	<text x="220" y="281" class="p2">Inventory report generation</text>
	<text x="220" y="299" class="p2">Client/Vendor relations</text>
	<text x="220" y="317" class="p2">Market analysis</text>

	<circle cx="392" cy="260" r="1.5"  class="li-disc"></circle>			
	<circle cx="392" cy="278" r="1.5" class="li-disc"></circle>			
	<circle cx="392" cy="296" r="1.5" class="li-disc"></circle>
	<circle cx="392" cy="314" r="1.5" class="li-disc"></circle>

	<text x="410" y="263" class="p2">Sales management</text>
	<text x="410" y="281" class="p2">Staff training</text>
	<text x="410" y="299" class="p2">Customer relations</text>
	<text x="410" y="317" class="p2">Process Improvements</text>

	<!--Core Qualification Section End-->
	<line xmlns="http://www.w3.org/2000/svg" x1="24" y1="341" x2="638" y2="341" class="line"/>

	<text x="28" y="374" class="h2">Experience</text>

	<text x="195" y="374" class="subheding">AUGUST 2011-CURRENT</text>
	<text x="195" y="392" class="subheding">District Manager</text>
	<text x="195" y="406" class="subheding">Verizon Wireless | San Francisco, CA</text>
		
	<g  transform="translate(0 15)">
		<circle cx="195" cy="406" r="1"  class="li-disc"></circle>			
		<circle cx="195" cy="424" r="1" class="li-disc"></circle>			
		<circle cx="195" cy="440" r="1" class="li-disc"></circle>
		<circle cx="195" cy="458" r="1" class="li-disc"></circle>

		<text x="24" y="380" class="p2" >
			<tspan x="210" y="409">Directed recruitment/training/staff development initiatives.</tspan>
			<tspan x="210" y="427">Compute taxes owed and prepare tax returns, ensuring compliance with reporting.</tspan>
			<tspan x="210" y="443">Administered daily operations to ensure policies were adhered to by sales staff.</tspan>
			<tspan x="210" y="461">Cultivated strong business relationships with customers to drive business.</tspan>
		</text>
	</g>		

	<text x="195" y="504" class="subheding">August 2009-2011</text>
	<text x="195" y="518" class="subheding">District Manager</text>
	<text x="195" y="536" class="subheding">Verizon Wireless | San Francisco, CA</text>

	<g  transform="translate(0 30)">	
		<circle cx="195" cy="518" r="1"  class="li-disc"></circle>			
		<circle cx="195" cy="536" r="1" class="li-disc"></circle>			
		<circle cx="195" cy="554" r="1" class="li-disc"></circle>
		<circle cx="195" cy="572" r="1" class="li-disc"></circle>

		<text x="24" y="518" class="p2" >
			<tspan x="210" y="521">Directed recruitment/training/staff development initiatives.</tspan>
			<tspan x="210" y="539">Compute taxes owed and prepare tax returns, ensuring compliance with reporting.</tspan>
			<tspan x="210" y="557">Administered daily operations to ensure policies were adhered to by sales staff.</tspan>
			<tspan x="210" y="575">Cultivated strong business relationships with customers to drive business.</tspan>
		</text>		
	</g>	

	<!-- Exp Second Section End -->

	<!-- Education Section-->
	<g  transform="translate(0 30)">
		<line xmlns="http://www.w3.org/2000/svg" x1="24" y1="606" x2="638" y2="606" class="line"/>

		<text x="28" y="634" class="h2">Education</text>

		<text x="195" y="632" class="subheding">August 2011</text>
		<text x="195" y="648" class="p2">
			<tspan x="195" y="654">Bachelor of Arts: Operational Managements</tspan>
			<tspan x="195" y="670">San Francisco State University, San Francisco, CA</tspan>			
		</text>

		<text x="195" y="698" class="subheding">August 2008</text>
		<text x="195" y="702" class="p2">
			<tspan x="195" y="714">Bachelor of Arts: Operational Managements</tspan>
			<tspan x="195" y="732">San Francisco State University, San Francisco, CA</tspan>			
		</text>
	</g>

</svg>